# xmcd CD database file
#
# Track frame offsets:
#	150
#	15917
#	30101
#	42242
#	51172
#	62829
#	77092
#	90971
#	105425
#	117798
#	130455
#	149393
#	161730
#	177227
#	190206
#	201104
#	217398
#	233402
#	245711
#	256237
#	272312
#
# Disc length: 3805 seconds
#
# Revision: 3
# Processed by: cddbd v1.5.1PL0 Copyright (c) Steve Scherf et al.
# Submitted via: CDex 1.51
#
DISCID=170edb15
DTITLE=The Mills Brothers and Count Basie - The Board Of Directors and Annual report
DYEAR=1998
DGENRE=Jazz
TTITLE0=(Up A) Lazy River
TTITLE1=I May Be Wrong But I Think You're Wonderful
TTITLE2=Release Me
TTITLE3=I Want To Be Happy
TTITLE4=Down, Down, Down
TTITLE5=The Whiffenpoof Song
TTITLE6=I Dig Rock And Roll Music
TTITLE7=Tiny Bubbles
TTITLE8=December
TTITLE9=Let Me Dream
TTITLE10=April In Paris
TTITLE11=Gentle On My Mind
TTITLE12=Cherry Point
TTITLE13=You Never Miss The Water Till The Well Runs Dry
TTITLE14=The Glow Worm
TTITLE15=Sent For You Yesterday (And Here You Are Today)
TTITLE16=Sunny
TTITLE17=I'll Be Around
TTITLE18=Cielito Lindo
TTITLE19=Blue and Sentimental
TTITLE20=Every Day
EXTD=YEAR: 1998
EXTT0=
EXTT1=
EXTT2=
EXTT3=
EXTT4=
EXTT5=
EXTT6=
EXTT7=
EXTT8=
EXTT9=
EXTT10=
EXTT11=
EXTT12=
EXTT13=
EXTT14=
EXTT15=
EXTT16=
EXTT17=
EXTT18=
EXTT19=
EXTT20=
PLAYORDER=
